HIERARCHY
ROOT Hips
{
	OFFSET -3.958830 18.904000 13.208200
	CHANNELS 6 Xposition Yposition Zposition Zrotation Yrotation Xrotation 
	JOINT LHipJoint
	{
		OFFSET 0.000000 0.000000 0.000000
		CHANNELS 3 Zrotation Yrotation Xrotation
		JOINT LeftUpLeg
		{
			OFFSET 1.800000 -1.400000 0.085000
			CHANNELS 3 Zrotation Yrotation Xrotation
			JOINT LeftLeg
			{
				OFFSET 2.215000 -6.000000 0.000000
				CHANNELS 3 Zrotation Yrotation Xrotation
				JOINT LeftFoot
				{
					OFFSET 2.500000 -6.900000 0.000000
					CHANNELS 3 Zrotation Yrotation Xrotation
					JOINT LeftToeBase
					{
						OFFSET 0.200000 -0.500000 1.950000
						CHANNELS 3 Zrotation Yrotation Xrotation
						End Site
						{
							OFFSET 0.000000 0.000000 0.000000
						}
					}
				}
			}
		}
	}
	JOINT RHipJoint
	{
		OFFSET 0.000000 0.000000 0.000000
		CHANNELS 3 Zrotation Yrotation Xrotation
		JOINT RightUpLeg
		{
			OFFSET -1.800000 -1.400000 0.085000
			CHANNELS 3 Zrotation Yrotation Xrotation
			JOINT RightLeg
			{
				OFFSET -2.215000 -6.000000 0.000000
				CHANNELS 3 Zrotation Yrotation Xrotation
				JOINT RightFoot
				{
					OFFSET -2.500000 -6.900000 0.000000
					CHANNELS 3 Zrotation Yrotation Xrotation
					JOINT RightToeBase
					{
						OFFSET -0.200000 -0.500000 1.950000
						CHANNELS 3 Zrotation Yrotation Xrotation
						End Site
						{
							OFFSET 0.000000 0.000000 0.000000
						}
					}
				}
			}
		}
	}
	JOINT LowerBack
	{
		OFFSET 0.000000 0.000000 0.000000
		CHANNELS 3 Zrotation Yrotation Xrotation
		JOINT Spine
		{
			OFFSET -0.087000 1.940000 -0.288900
			CHANNELS 3 Zrotation Yrotation Xrotation
			JOINT Spine1
			{
				OFFSET 0.000000 1.950000 0.060000
				CHANNELS 3 Zrotation Yrotation Xrotation
				JOINT Neck
				{
					OFFSET 0.000000 0.000000 0.000000
					CHANNELS 3 Zrotation Yrotation Xrotation
					JOINT Neck1
					{
						OFFSET 0.000000 1.600000 0.340000
						CHANNELS 3 Zrotation Yrotation Xrotation
						JOINT Head
						{
							OFFSET 0.000000 1.667000 -0.240000
							CHANNELS 3 Zrotation Yrotation Xrotation
							End Site
							{
								OFFSET 0.000000 0.000000 0.000000
							}
						}
					}
				}
				JOINT LeftShoulder
				{
					OFFSET 0.000000 0.000000 0.000000
					CHANNELS 3 Zrotation Yrotation Xrotation
					JOINT LeftArm
					{
						OFFSET 2.700000 1.550000 -0.730000
						CHANNELS 3 Zrotation Yrotation Xrotation
						JOINT LeftForeArm
						{
							OFFSET 5.450000 0.000000 0.000000
							CHANNELS 3 Zrotation Yrotation Xrotation
							JOINT LeftHand
							{
								OFFSET 3.450000 0.000000 0.000000
								CHANNELS 3 Zrotation Yrotation Xrotation
								JOINT LeftHandIndex1
								{
									OFFSET 0.750000 0.000000 0.000000
									CHANNELS 3 Zrotation Yrotation Xrotation
									End Site
									{
										OFFSET 0.000000 0.000000 0.000000
									}
								}
							}
						}
					}
				}
				JOINT RightShoulder
				{
					OFFSET 0.000000 0.000000 0.000000
					CHANNELS 3 Zrotation Yrotation Xrotation
					JOINT RightArm
					{
						OFFSET -2.700000 1.550000 -0.730000
						CHANNELS 3 Zrotation Yrotation Xrotation
						JOINT RightForeArm
						{
							OFFSET -5.450000 0.000000 0.000000
							CHANNELS 3 Zrotation Yrotation Xrotation
							JOINT RightHand
							{
								OFFSET -3.450000 0.000000 0.000000
								CHANNELS 3 Zrotation Yrotation Xrotation
								JOINT RightHandIndex1
								{
									OFFSET -0.750000 0.000000 0.000000
									CHANNELS 3 Zrotation Yrotation Xrotation
									End Site
									{
										OFFSET 0.000000 0.000000 0.000000
									}
								}
							}
						}
					}
				}
			}
		}
	}
}
MOTION
Frames: 9
Frame Time: 0.016667
-2.419330 18.294580 1.903150 7.958307 -24.097584 -19.431409 -16.424419 9.615982 7.630265 41.615959 10.065673 -37.479091 -101.940055 41.510890 13.865843 2.177581 12.133440 0.705423 0.568580 0.241220 0.561040 17.821301 -8.530918 0.887517 -27.813181 0.939227 -1.744821 8.116355 -6.732498 10.335150 -0.628977 -4.731709 2.745353 0.012080 -0.167420 0.129930 -1.517051 -1.735538 -9.334885 -16.945187 15.555398 29.903599 9.148629 12.734437 3.244826 1.781757 7.680671 -15.436499 13.309049 -16.135777 41.568485 6.095630 -9.468720 -20.121510 -15.449348 -18.726539 9.200624 -24.937343 9.096181 -10.379931 -9.916310 -81.590284 4.162596 -2.977804 3.304355 0.840570 -0.239400 0.271950 0.137590 12.394477 23.010792 8.852750 18.350178 2.879784 -17.885241 99.013537 89.033519 100.690148 1.710666 5.323628 -0.102850 0.103730 -0.235100 -0.283080 
-2.478520 18.197230 1.902680 8.284333 -24.256506 -19.253903 -16.381569 9.619812 7.540101 40.942835 10.015117 -37.298755 -99.357991 41.747306 15.032243 2.181374 12.181101 0.683745 0.560420 0.241580 0.553930 17.843616 -8.655643 0.918641 -26.678447 0.905379 -1.236859 7.506828 -6.497871 9.699864 -0.636848 -4.668916 2.792828 0.004880 -0.166780 0.140610 -1.609439 -1.458436 -9.247184 -16.710606 15.667540 29.557732 8.343348 13.094930 2.823348 1.742891 7.974575 -15.510974 14.227453 -16.578175 40.650158 5.594400 -9.351410 -20.413250 -16.030728 -18.910402 9.145306 -24.621616 10.187068 -11.065869 4.643929 -81.543841 -7.327426 -2.956875 3.181885 0.833360 -0.230820 0.279810 0.139070 12.798212 23.231310 8.890495 19.096139 2.076050 -19.862767 104.967347 89.094698 109.151009 1.357005 3.635745 -0.093550 0.099400 -0.234530 -0.277960 
-2.573890 18.016060 1.888800 8.852338 -24.588693 -19.106025 -16.275323 9.642285 7.346029 38.689125 9.237814 -36.846520 -93.246558 41.031761 17.210600 2.173075 12.315012 0.614894 0.521950 0.186380 0.532200 17.884639 -8.851851 1.088097 -24.990989 0.847169 -0.235260 6.915985 -6.120797 7.944067 -0.648043 -4.620811 2.827645 -0.030940 -0.167260 0.144690 -1.809863 -1.024001 -9.176263 -16.171150 15.698478 28.999112 6.928254 13.433792 2.937669 1.498101 7.963556 -16.044291 14.533311 -16.667682 40.367300 6.268600 -9.864840 -19.870550 -15.737210 -19.515516 9.031770 -24.413127 10.966692 -12.265449 20.991990 -79.577429 -19.170545 -2.890429 2.982773 0.831900 -0.235160 0.266450 0.118310 12.833700 23.699331 9.764984 19.934749 2.489411 -20.031018 -74.440441 86.765725 -64.124033 1.161268 2.658143 -0.094100 0.074660 -0.209430 -0.280180 
-2.667990 17.787530 1.874590 9.280225 -24.349941 -18.491440 -16.168424 9.680606 7.146365 35.768630 8.060303 -36.917705 -86.040333 39.937875 19.686697 2.116632 12.468975 0.561414 0.494670 0.155520 0.535250 17.924265 -9.054148 1.236756 -23.410766 0.825233 0.180103 7.133940 -6.015441 7.189216 -0.650025 -4.594826 2.884763 -0.031830 -0.149250 0.105220 -2.006429 -0.611372 -9.066144 -15.342932 15.544339 28.257089 5.235805 13.680608 2.958905 1.535180 8.462888 -16.357974 15.790150 -17.390084 38.775307 5.592260 -9.909200 -20.355980 -16.108777 -19.807887 8.668094 -23.314423 11.420786 -12.810429 32.632686 -77.481348 -26.259490 -2.850539 2.686088 0.850340 -0.226360 0.251410 0.117010 12.836202 23.467314 10.639611 21.142474 3.656798 -19.191916 -75.174540 80.267666 -58.051235 1.130931 1.726568 -0.145490 0.126780 -0.206710 -0.298240 
-2.761700 17.543540 1.869640 9.325613 -23.699480 -18.341922 -16.035985 9.718059 6.992369 32.607103 6.443094 -37.412026 -79.852273 39.168933 22.417522 2.073383 12.617905 0.491096 0.488190 0.135120 0.549670 17.973706 -9.287234 1.411321 -21.959508 0.738727 1.447006 7.771011 -6.149171 6.949569 -0.691293 -4.688031 2.863096 -0.036540 -0.166520 0.084450 -2.239401 -0.210103 -9.056686 -13.443695 14.622663 28.767325 2.814977 13.555288 3.006091 1.590596 8.256467 -16.488876 15.342007 -17.464325 38.099051 5.945500 -10.107270 -22.053370 -16.478252 -20.002708 8.323436 -22.601148 11.914966 -13.561335 44.880180 -75.549930 -33.382857 -2.760109 2.351500 0.883450 -0.253250 0.251990 0.102780 12.828756 23.614767 11.299383 22.011449 5.851101 -18.243835 -74.692613 73.387214 -52.626000 1.320683 0.804394 -0.171200 0.135020 -0.204500 -0.317030 
-2.840080 17.297040 1.865710 8.926368 -23.093621 -19.152910 -15.846028 9.939233 6.755233 28.749642 4.130319 -36.437286 -70.686244 37.992199 26.776710 2.109703 12.758597 0.417702 0.489540 0.129860 0.535110 18.024614 -9.668801 1.607653 -20.331041 0.511397 3.297886 8.312737 -6.513915 8.020867 -0.759373 -4.841225 2.821064 -0.079700 -0.206030 0.093610 -2.501690 0.116313 -9.105382 -10.378341 13.157487 30.924308 0.158845 13.291967 2.708377 1.480990 7.063857 -17.319247 12.867517 -16.808353 39.991768 8.295110 -11.257520 -22.881680 -16.947230 -20.912117 8.663039 -22.584022 12.308523 -13.971475 45.050073 -70.448178 -30.210383 -2.704887 2.468929 0.887880 -0.304750 0.278150 0.110730 13.473396 25.229451 12.226219 21.142691 6.827921 -18.262307 -74.230025 66.765649 -48.315961 1.697041 -0.012757 -0.123690 0.078050 -0.228510 -0.291220 
-2.898360 17.055430 1.846350 7.870532 -22.870629 -20.649967 -15.615099 10.307095 6.493039 24.705916 1.915080 -34.639741 -60.516083 36.578704 32.080269 2.134990 12.917574 0.356926 0.460530 0.114320 0.486460 18.088812 -10.165630 1.760177 -18.340582 0.223906 5.202722 7.878681 -6.951150 10.852848 -0.820732 -4.950231 2.815018 -0.126340 -0.211620 0.070580 -2.812316 0.355320 -9.179409 -5.454408 10.838211 34.341584 -3.254985 13.021752 3.234732 1.719155 4.812360 -18.497006 8.220682 -15.582981 43.840079 11.971110 -12.792650 -25.245140 -17.197334 -22.138670 9.089027 -24.085238 11.506749 -14.698112 46.602221 -63.423657 -27.607032 -2.678076 2.506724 0.906260 -0.361760 0.306750 0.123930 13.459060 28.286883 13.315294 19.843716 8.829320 -19.762276 -72.878388 59.351306 -43.597085 2.221271 -0.744116 -0.102310 0.092420 -0.232690 -0.251170 
-2.938340 16.832790 1.833240 5.538792 -23.563604 -21.091730 -15.357091 10.626755 6.335103 22.177229 0.562801 -33.104112 -52.081987 34.865837 36.364093 2.092679 13.033100 0.320190 0.381060 0.019610 0.369180 18.205710 -10.624852 1.907671 -15.383060 0.048888 5.808313 7.108537 -7.200526 14.625971 -0.791101 -5.009469 2.828503 -0.173550 -0.143350 0.011670 -3.266264 0.603968 -9.306214 1.339869 6.902236 37.191099 -7.221872 12.022543 3.805602 2.160640 0.684935 -19.771855 0.085234 -12.637032 45.961836 15.920130 -15.283710 -24.931000 -18.902224 -23.279023 9.268868 -24.779481 11.262134 -14.577453 48.519029 -53.983242 -24.268204 -2.774679 2.641908 0.884080 -0.379590 0.229670 0.128380 14.873489 32.603406 14.524026 16.721996 9.885947 -22.956001 -70.057139 54.655409 -38.905079 2.878428 -1.356252 -0.133340 0.130240 -0.176180 -0.209590 
-2.969250 16.633160 1.844550 3.766588 -25.240787 -21.528539 -15.176936 11.071770 5.988480 19.084658 -0.050656 -30.759948 -45.528840 32.829664 38.742413 1.958619 12.907129 0.354219 0.323370 -0.048310 0.300120 18.249291 -10.952315 2.045814 -13.630223 0.479538 5.642288 7.077814 -7.566295 18.733569 -0.782433 -5.156191 2.796222 -0.186100 -0.087750 -0.055410 -3.502485 0.554809 -9.252440 6.369856 4.162240 38.571025 -9.982600 11.698020 4.595297 3.189244 -2.102942 -21.233068 -5.250090 -11.109646 47.571164 17.339980 -16.845510 -25.888810 -21.662017 -24.176508 9.132724 -24.518031 11.772329 -14.537474 51.469395 -47.478902 -23.078528 -2.910589 2.700705 0.903920 -0.397850 0.179930 0.130410 16.202364 36.282059 15.661550 13.476450 11.362344 -26.286276 -65.263139 50.034629 -32.955192 3.530210 -1.750708 -0.199640 0.215370 -0.127710 -0.197000 
